<?xml version="1.0" encoding="utf-8"?>
<!-- Generator: Adobe Illustrator 16.0.0, SVG Export Plug-In . SVG Version: 6.00 Build 0)  -->
<!DOCTYPE svg PUBLIC "-//W3C//DTD SVG 1.1//EN" "http://www.w3.org/Graphics/SVG/1.1/DTD/svg11.dtd">
<svg version="1.1" id="Layer_1" xmlns="http://www.w3.org/2000/svg" xmlns:xlink="http://www.w3.org/1999/xlink" x="0px" y="0px"
	 width="3138.685px" height="3249.846px" viewBox="0 0 3138.685 3249.846" enable-background="new 0 0 3138.685 3249.846"
	 xml:space="preserve">
<line fill="none" stroke="#00B7F1" stroke-width="2" stroke-miterlimit="10" x1="1606.032" y1="1237.764" x2="1355.392" y2="0.199"/>
<path id="sol" fill="#00B7F1" d="M2192.618,1532.514c0,306.616-248.567,555.184-555.184,555.184
	c-306.618,0-555.184-248.567-555.184-555.184c0-306.617,248.566-555.184,555.184-555.184
	C1944.05,977.331,2192.618,1225.897,2192.618,1532.514z"/>
<path fill="#00445D" d="M3138.685,2294.797c-3.89-7.714-7.928-15.2-12.206-22.345c-122.687-204.939-291.339-399.092-479.113-552.164
	c-99.765-81.325-183.409-133.232-306.621-87.176c-94.713,35.393-129.334,77.487-222.604,28.267
	c-78.077-41.204-136.952-107.967-216.037-155.927c-194.753-118.097-212.213-107.666-297.608,81.92
	c-78.9,175.18-133.434,359.359-211.358,535.049c-25.658,57.853-52.481,115.168-79.536,172.376H3138.685z"/>
<path fill="#FFFFFF" d="M2410.245,1644.545c99.22-39.161,186.998-13.163,271.802,45.166
	c49.683,34.16,214.161,150.975,199.346,223.076c-11.984,58.283-91.206,39.346-144.695,47.964
	c-69.683,108.555-143.644,93.077-274.16,55.008c-167.851-48.956-258.313-36.986-407.885,38.557
	c-128.957,65.123-162.03,14.459-267.632-64.187c-89.355-66.538-127.18-61.48-225.221-69.55
	c-89.392-7.351-90.752-11.593-70.372-91.321c20.708-80.978,58.822-162.321,91.514-238.967
	c95.955-224.92,115.575-237.303,334.413-97.198c88.867,56.897,155.031,136.104,242.755,184.997
	C2264.914,1736.484,2303.826,1686.543,2410.245,1644.545z"/>
<polygon fill="#006E92" points="1994.252,1575.084 1989.848,1692.52 2182.148,1669.033 2182.148,1619.123 "/>
<polygon fill="#0081AA" points="1729.897,1650.731 1832.653,1509.809 1920.637,1551.287 1998.531,1567.058 1988.255,1700.641 
	1907.519,1718.256 1838.525,1650.731 1729.897,1684.494 "/>
<polygon fill="#00B7F1" points="2376.65,1566.277 2376.65,1735.09 2731.158,1801.881 2725.085,1669.033 2561.782,1513.856 "/>
<polygon fill="#005A78" points="2381.788,1566.277 2182.148,1619.123 2182.148,1682.245 2381.788,1735.09 "/>
<path fill="#005A78" d="M1994.252,1575.084"/>
<polygon fill="#00445D" points="2381.788,1532.514 2182.148,1602.976 2182.148,1619.123 2381.788,1566.277 "/>
<polygon fill="#005A78" points="1789.534,1466.458 2161.597,1575.819 2182.148,1602.976 1923.791,1532.514 "/>
<polygon fill="#00A0DC" points="1570.017,1726.283 1797.548,1619.123 1859.935,1630.867 1872.413,1635.27 1917.919,1682.245 
	2116.091,1611.784 2478.672,1726.283 2478.672,1762.981 2111.687,1676.373 1903.239,1726.283 1852.669,1687.382 1797.548,1674.905 
	1563.9,1772.744 "/>
<polygon fill="#00445D" points="2560.877,1514.166 2587.3,1506.091 2754.646,1683.712 2728.223,1692.52 2728.223,1680.042 
	2718.681,1677.107 2708.914,1683.121 "/>
<polygon fill="#005A78" points="1920.399,1553.554 1911.937,1677.595 1920.778,1679.552 1932.108,1546.704 1924.77,1546.704 "/>
<polygon fill="#1C75BC" points="2116.091,1604.687 2110.586,1678.575 2123.063,1677.595 2126.855,1607.624 "/>
<polyline fill="#005A78" points="2104.026,1678.575 2108.506,1607.624 2116.091,1604.687 2112.298,1677.564 "/>
<polygon fill="#00445D" points="1657.462,1642.61 1657.462,1669.773 1797.042,1495.816 1916.357,1559.313 1923.791,1532.514 
	1789.534,1466.458 "/>
<polygon fill="#002D41" points="1672.779,1650.684 1709.538,1660.572 1732.013,1649.987 1830.941,1513.856 1797.042,1495.816 "/>
<polygon fill="#005A78" points="2161.597,1575.819 2207.913,1587.562 2381.788,1526.654 2591.704,1475.265 2182.148,1602.976 "/>
<polygon fill="#00AEEF" points="2268.462,1466.458 2263.43,1568.115 2288.881,1559.2 2288.881,1475.265 "/>
<polygon fill="#16609B" points="2268.462,1466.458 2254.15,1475.265 2248.134,1573.472 2263.43,1568.115 "/>
<path fill="#16609B" d="M2586.623,1707.203"/>
<polygon fill="#16609B" points="2470.354,1718.455 2470.354,1760.962 2480.63,1763.387 2479.406,1720.9 "/>
<polygon fill="#006DA5" points="2470.354,1718.455 2462.525,1719.677 2462.525,1721.633 2470.354,1723.835 "/>
<polygon fill="#006DA5" points="2470.354,1715.028 2470.354,1718.455 2480.63,1721.878 2480.63,1718.455 "/>
<polygon fill="#006DA5" points="2470.354,1715.028 2460.568,1716.986 2460.568,1719.922 2470.354,1718.455 "/>
<path fill="#006DA5" d="M2432.677,1780.106"/>
<polygon fill="#16609B" points="2358.057,1682.189 2357.012,1733.877 2367.288,1736.301 2367.108,1684.635 "/>
<polygon fill="#006DA5" points="2358.057,1682.189 2350.228,1683.412 2350.228,1685.37 2358.057,1687.572 "/>
<polygon fill="#006DA5" points="2358.057,1678.764 2358.057,1682.189 2368.333,1685.615 2368.333,1682.189 "/>
<polygon fill="#006DA5" points="2358.057,1678.764 2348.271,1680.72 2348.271,1683.657 2358.057,1682.189 "/>
<polygon fill="#16609B" points="2244.78,1646.035 2243.736,1708.034 2254.011,1710.458 2253.833,1648.482 "/>
<polygon fill="#006DA5" points="2244.78,1646.035 2236.952,1647.257 2236.952,1649.215 2244.78,1651.417 "/>
<polygon fill="#006DA5" points="2244.78,1642.61 2244.78,1646.035 2255.056,1649.46 2255.056,1646.035 "/>
<polygon fill="#006DA5" points="2244.78,1642.61 2234.994,1644.567 2234.994,1647.502 2244.78,1646.035 "/>
<polygon fill="#16609B" points="2033.398,1635.757 2028.871,1696.202 2036.487,1694.378 2039.515,1633.802 "/>
<polygon fill="#16609B" points="2029.973,1631.843 2029.973,1636.001 2039.515,1632.577 2039.515,1628.418 "/>
<polygon fill="#00445D" points="2039.515,1628.418 2051.748,1632.209 2050.625,1635.06 2039.515,1632.577 "/>
<polygon fill="#00445D" points="2049.253,1635.06 2039.515,1633.802 2036.487,1694.378 2039.515,1692.52 2042.87,1637.818 "/>
<polygon fill="#16609B" points="1968.81,1660.222 1964.833,1713.798 1972.449,1711.974 1974.926,1658.267 "/>
<polygon fill="#16609B" points="1965.384,1656.307 1965.384,1660.467 1974.926,1657.042 1974.926,1652.882 "/>
<polygon fill="#00445D" points="1974.926,1652.882 1987.159,1656.674 1986.035,1659.526 1974.926,1657.042 "/>
<polygon fill="#00445D" points="1984.664,1659.526 1974.926,1658.267 1972.449,1711.974 1975.477,1710.116 1978.281,1662.283 "/>
<polygon fill="#16609B" points="1906.92,1671.949 1902.635,1729.156 1909.843,1727.429 1912.709,1670.098 "/>
<polygon fill="#16609B" points="1903.678,1668.243 1903.678,1672.179 1912.709,1668.937 1912.709,1665.001 "/>
<polygon fill="#00445D" points="1912.709,1665.001 1924.287,1668.59 1923.224,1671.288 1912.709,1668.937 "/>
<polygon fill="#00445D" points="1921.926,1671.288 1912.709,1670.098 1909.843,1727.429 1912.709,1725.67 1915.885,1673.898 "/>
<polygon fill="#00445D" points="1800.487,1609.333 1798.376,1675.23 1808.923,1677.479 1810.194,1610.07 "/>
<polygon fill="#16609B" points="1800.487,1609.333 1795.967,1611.074 1795.468,1675.639 1798.376,1675.23 "/>
<polygon fill="#16609B" points="1800.487,1604.684 1800.487,1609.333 1811.493,1611.108 1811.493,1607.559 "/>
<polygon fill="#00445D" points="1800.487,1604.684 1794.126,1608.234 1794.126,1611.784 1800.487,1609.333 "/>
<path fill="#00445D" d="M1861.896,1626.704"/>
<polygon fill="#16609B" points="1566.989,1716.833 1566.989,1719.953 1573.691,1716.004 1573.691,1712.578 "/>
<polygon fill="#00445D" points="1573.691,1712.578 1582.219,1714.54 1582.219,1717.659 1573.691,1716.004 "/>
<polygon fill="#00445D" points="1567.575,1719.429 1563.9,1772.744 1568.185,1770.951 1570.634,1725.992 1573.691,1724.551 
	1581.276,1720.98 1581.276,1717.227 1573.691,1716.004 "/>
<polygon fill="#16609B" points="1639.744,1682.978 1639.744,1740.985 1635.124,1742.918 1635.124,1686.282 "/>
<polygon fill="#1C75BC" points="1633.138,1684.08 1633.138,1687.75 1639.744,1682.978 1639.744,1679.552 "/>
<polygon fill="#1C75BC" points="1639.744,1679.552 1651.854,1682.272 1651.854,1685.764 1639.744,1682.978 "/>
<polygon fill="#27AAE1" points="1650.287,1685.07 1650.287,1688.477 1639.744,1693.443 1639.744,1682.978 "/>
<polygon fill="#16609B" points="1861.896,1626.704 1857.117,1690.804 1866.119,1697.728 1871.312,1628.418 "/>
<polygon fill="#16609B" points="1861.896,1622.792 1861.896,1626.952 1873.88,1629.887 1873.88,1625.607 "/>
<polygon fill="#00445D" points="1861.896,1622.792 1854.553,1625.484 1854.553,1628.297 1861.896,1626.704 "/>
<polygon fill="#16609B" points="1856.143,1628.297 1856.143,1629.887 1861.543,1631.434 1861.896,1626.704 "/>
<polygon fill="#00B7F1" points="1931.62,1554.043 1920.399,1681.362 1935.41,1676.024 1940.638,1549.289 1932.108,1546.704 "/>
<polygon fill="#00445D" points="1923.791,1532.514 1916.357,1559.313 2182.148,1619.123 2182.148,1602.976 "/>
<polygon fill="#00A0DC" points="2252.242,1472.879 2252.242,1476.917 2269.196,1467.191 2290.409,1476.917 2290.409,1472.053 
	2269.196,1462.97 "/>
<polygon fill="#00AEEF" points="2734.828,1680.042 2737.03,1738.393 2727.488,1735.458 2725.287,1677.107 "/>
<polygon fill="#00516D" points="2725.287,1677.107 2715.519,1683.121 2720.151,1738.393 2727.488,1735.458 "/>
<polygon fill="#00516D" points="2737.03,1738.393 2729.882,1741.417 2720.151,1738.393 2727.488,1735.458 "/>
<polygon fill="#00AEEF" points="2407.703,1562.014 2409.905,1620.365 2400.363,1617.428 2398.161,1559.078 "/>
<polygon fill="#00516D" points="2398.161,1559.078 2388.394,1565.091 2393.026,1620.365 2400.363,1617.428 "/>
<polygon fill="#00516D" points="2409.905,1620.365 2402.757,1623.388 2393.026,1620.365 2400.363,1617.428 "/>
<polygon fill="#00516D" points="2381.788,1532.514 2381.788,1566.277 2587.3,1506.091 2770.793,1707.203 2776.665,1673.437 
	2591.704,1475.265 "/>
<path fill="#0080B0" d="M1806.355,1168.465c-13.476-3.364-21.639,10.492-16.294,21.721c-9.7,2.747-11.915-7.727-21.651-5.352
	c-3.685,11.71,8.473,12.31,13.175,20.329c-5.221,8.263-17.001,16.261-2.87,21.982c-4.157,5.55-10.285,3.303-15.001,7.305
	c-1.509,1.282,0.688,7.731-1.369,10.055c-4.224,4.77-12.551,5.597-17.809,9.152c5.198,19.731,15.318,10.192,26.366,10.771
	c1.818,9.533-7.331,14.449-4.336,22.683c-6.328-0.563-12.571-0.852-16.191,4.6c-5.816-4.416-11.93-10.727-17.043-16.013
	c-1.274,19.219-10.041,1.336-19.457,3.078c-11.746,2.172-9.629,14.159-0.18,17.73c-0.527,8.406-6.112,15.348-4.002,24.373
	c13.104,3.57,4.365,14.36,8.727,22.346c1.868,3.419,8.169,3.124,10.087,7.239c2.917,6.259,2.244,10.538,2.063,17.417
	c6.421,0.108,11.222,4.023,12.149,10.244c-3.965,0.763-6.998,4.086-10.968,4.761c3.53,18.69-15.308,8.249-23.521,7.383
	c-0.26,5.739-0.242,11.577-0.005,17.317c1.726,0.006,3.724,0.416,5.433,0.368c4.75,18.396,11.153,29.92,23.696,45.18
	c-6.685,9.224-10.795,4.702-17.569,8.779c-0.009,0.005-0.018,0.011-0.026,0.016c-9.032,5.456-24.727,16.212-13.171,26.396
	c6.196,5.46,25.451-1.819,26.479,10.389c0.628,7.44-8.831,6.535-10.45,11.705c-0.821,2.619,2.839,5.541,2.633,6.24
	c0.574-1.95-1.619,12.952-2.275,9.983c1.431,6.477-1.26,11.703,10.017,13.308c3.9,0.555,3.346-6.411,6.908-5.707
	c4.418,0.871,10.06,7.436,11.772,7.635c9,1.042,20.605-18.729,30.776-5.089c-2.046-2.743,4.606-24.979,8.595-26.961
	c7.897-3.924,8.247,3.204,14.498,4.285c3.247,0.561,9.885,0.105,12.154,0.681c2.238,0.566,6.548,4.877,7.708,4.864
	c5.064-0.058,11.857,5.341,10.532-6.005c12.505,2.276,17.433-0.555,16.142-14.686c0.046,0.505,4.813-2.396,5.173-3.925
	c0.965-4.099-6.741-4.371-7.548-6.296c-4.267-10.182-4.076-7.217-2.251-20.867c1.393-10.426-4.325-17.297-3.874-26.203
	c8.971-2.12,30.826-1.824,21.609-16.106c6.39-5.037,28.608-3.9,21.975-19.337c-3.58-8.33-13.313-2.166-20.557-6.184
	c-7.135-3.958-10.14-16.668-14.753-24.459c9.477-3.791,19.864-7.25,25.586-15.223c-14.639-3.954-38.116,2.39-34.191-24.269
	c46.399-18.348,2.529-17.756-15.221-29.607c8.646-19.634,30.328-1.893,42.913-12.042c18.396-14.833-13.156-27.687-22.98-29.353
	c-7.354-10.235-7.206-22.39,5.375-26.238c12.173-3.723,19.758,4.667,17.712-15.674c-6.519-3.526-13.121-6.444-20.426-6.467
	c0.66-2.748-1.239-7.48-0.781-9.871c-25.367,0.375,5.941-26.228-0.029-35.301c-14.457,9.337-29.471,4.932-44.924,1.322"/>
<polyline fill="#00445D" points="1760.997,1742.918 1807.308,1232.715 1784.151,1727.982 "/>
<polygon fill="#27AAE1" points="2105.081,1609.091 2105.081,1604.444 2116.091,1600.529 2116.091,1605.109 "/>
<polyline fill="#16609B" points="2116.091,1600.529 2130.036,1604.81 2130.036,1609.091 2116.091,1605.109 2116.091,1601.507 "/>
<polygon fill="#0092C8" points="2460.568,1116.957 2480.166,1177.272 2543.586,1177.272 2492.278,1214.55 2511.876,1274.865 
	2460.568,1237.589 2409.26,1274.865 2428.857,1214.55 2377.55,1177.272 2440.97,1177.272 "/>
<polygon fill="#0092C8" points="2234.994,949.667 2248.863,992.354 2293.746,992.354 2257.435,1018.735 2271.304,1061.42 
	2234.994,1035.039 2198.684,1061.42 2212.554,1018.735 2176.243,992.354 2221.125,992.354 "/>
<polygon fill="#0092C8" points="2780.987,1182.637 2793.417,1220.894 2833.643,1220.894 2801.099,1244.537 2813.53,1282.792 
	2780.987,1259.149 2748.444,1282.792 2760.875,1244.537 2728.332,1220.894 2768.557,1220.894 "/>
<text transform="matrix(1 0 0 1 1263.0259 3175.0298)" fill="#00B7F1" font-family="'DINPro-Light'" font-size="315.6819" letter-spacing="-2"> spa og resort</text>
<text transform="matrix(1 0 0 1 1297.8198 2871.6167)" fill="#00445D" font-family="'DINPro-Bold'" font-size="650.9085">Balibu</text>
<line fill="none" stroke="#00B7F1" stroke-width="2" stroke-miterlimit="10" x1="1283.158" y1="1959.978" x2="394.841" y2="2639.384"/>
<line fill="none" stroke="#00B7F1" stroke-width="2" stroke-miterlimit="10" x1="1133.859" y1="1652.64" x2="394.841" y2="1791.118"/>
<line fill="none" stroke="#00B7F1" stroke-width="2" stroke-miterlimit="10" x1="1133.859" y1="1298.454" x2="0.294" y2="949.667"/>
<line fill="none" stroke="#00B7F1" stroke-width="2" stroke-miterlimit="10" x1="1283.158" y1="1105.051" x2="801.412" y2="618.981"/>
<line fill="none" stroke="#00B7F1" stroke-width="2" stroke-miterlimit="10" x1="1882.718" y1="1061.42" x2="2074.395" y2="404.456"/>
</svg>
