<?xml version="1.0" encoding="utf-8"?>
<!-- Generator: Adobe Illustrator 16.0.3, SVG Export Plug-In . SVG Version: 6.00 Build 0)  -->
<!DOCTYPE svg PUBLIC "-//W3C//DTD SVG 1.1//EN" "http://www.w3.org/Graphics/SVG/1.1/DTD/svg11.dtd">
<svg version="1.1" id="Layer_1" xmlns="http://www.w3.org/2000/svg" xmlns:xlink="http://www.w3.org/1999/xlink" x="0px" y="0px"
	 width="683.442px" height="130.551px" viewBox="0 0 683.442 130.551" enable-background="new 0 0 683.442 130.551"
	 xml:space="preserve">
<rect x="-9.559" y="106.4" fill="#00445D" width="696.564" height="26"/>
<g>
	<g id="solstraler">
		<line fill="none" stroke="#00B7F1" stroke-miterlimit="10" x1="33.687" y1="10.223" x2="5.63" y2="-128.289"/>
		<path id="sol_2_" fill="#00B7F1" d="M107.06,43.214c0,38.586-31.277,69.856-69.86,69.856c-38.581,0-69.86-31.271-69.86-69.856
			c0-38.584,31.279-69.855,69.86-69.855C75.783-26.642,107.06,4.63,107.06,43.214z"/>
		<path fill="none" stroke="#00B7F1" stroke-miterlimit="10" d="M138.623,0"/>
		<path fill="none" stroke="#00B7F1" stroke-miterlimit="10" d="M39.277,44.771"/>
	</g>
	<path fill="#00445D" d="M144.289,129.08c-0.434-0.866,51.288-21.528,39.384-22.347c-25.807-1.774-11.564-25.372-32.584-42.501
		c-11.166-9.103-20.525-14.912-34.319-9.757c-10.6,3.959-14.471,8.669-24.916,3.17c-8.739-4.619-15.326-12.099-24.181-17.458
		c-21.795-13.223-23.749-12.05-33.308,9.173c-8.406,18.661-6.344,42.063-26.589,45.023c-6.316,0.924-13.471-1.467-13.89-0.522
		c-2.87,6.475,6.583,39.348,6.583,39.348L144.289,129.08z"/>
	<path fill="#FFFFFF" d="M123.698,55.755c11.103-4.381,20.929-1.477,30.42,5.059c5.563,3.816,18.626,14.961,16.968,23.021
		c-1.338,6.532-4.861,6.347-10.852,7.313c-7.802,12.15-16.078,10.419-30.686,6.159c-18.789-5.484-28.91-4.139-45.654,4.317
		c-14.432,7.282-18.136,1.616-29.955-7.192c-10.001-7.446-14.233-6.881-25.209-7.78c-10.002-0.82-10.157-1.298-7.877-10.221
		c2.316-9.066,6.584-18.175,10.245-26.749c10.739-25.172,12.936-26.561,37.429-10.88c9.947,6.375,17.351,15.234,27.173,20.705
		C107.431,66.049,111.787,60.458,123.698,55.755z"/>
	<polygon fill="#006E92" points="77.137,47.983 76.643,61.124 98.167,58.493 98.167,52.911 	"/>
	<polygon fill="#0081AA" points="47.548,56.444 59.048,40.677 68.894,45.313 77.617,47.084 76.463,62.038 67.431,64.004 
		59.708,56.444 47.548,60.228 	"/>
	<polygon fill="#00B7F1" points="119.938,46.993 119.938,65.894 159.616,73.368 158.934,58.493 140.658,41.123 	"/>
	<polygon fill="#005A78" points="120.516,46.993 98.167,52.911 98.167,59.976 120.516,65.894 	"/>
	<path fill="#005A78" d="M77.137,47.983"/>
	<polygon fill="#00445D" points="120.516,43.214 98.167,51.106 98.167,52.911 120.516,46.993 	"/>
	<polygon fill="#005A78" points="54.223,35.823 95.865,48.063 98.167,51.106 69.25,43.214 	"/>
	<polygon fill="#00A0DC" points="29.651,64.903 55.121,52.911 62.1,54.222 63.498,54.72 68.593,59.976 90.773,52.088 
		131.359,64.903 131.359,69.014 90.281,59.315 66.948,64.903 61.291,60.55 55.121,59.151 28.967,70.108 	"/>
	<polygon fill="#00445D" points="140.556,41.159 143.513,40.261 162.246,60.143 159.287,61.124 159.287,59.729 158.216,59.404 
		157.124,60.073 	"/>
	<polygon fill="#005A78" points="68.871,45.565 67.919,59.456 68.911,59.672 70.181,44.802 69.36,44.802 	"/>
	<polygon fill="#1C75BC" points="90.773,51.292 90.157,59.565 91.553,59.456 91.98,51.626 	"/>
	<polyline fill="#005A78" points="89.423,59.565 89.924,51.626 90.773,51.292 90.347,59.45 	"/>
	<polygon fill="#00445D" points="39.441,55.542 39.441,58.581 55.065,39.104 68.415,46.212 69.25,43.214 54.223,35.823 	"/>
	<polygon fill="#002D41" points="41.152,56.438 45.269,57.554 47.788,56.372 58.856,41.123 55.065,39.104 	"/>
	<polygon fill="#005A78" points="95.865,48.063 101.049,49.378 120.516,42.563 144.008,36.804 98.167,51.106 	"/>
	<polygon fill="#00AEEF" points="107.826,35.823 107.263,47.206 110.114,46.203 110.114,36.804 	"/>
	<polygon fill="#16609B" points="107.826,35.823 106.226,36.804 105.554,47.795 107.263,47.206 	"/>
	<path fill="#16609B" d="M143.44,62.771"/>
	<polygon fill="#16609B" points="130.425,64.025 130.425,68.786 131.574,69.06 131.435,64.299 	"/>
	<polygon fill="#006DA5" points="130.425,64.025 129.548,64.165 129.548,64.387 130.425,64.63 	"/>
	<polygon fill="#006DA5" points="130.425,63.643 130.425,64.025 131.574,64.411 131.574,64.025 	"/>
	<polygon fill="#006DA5" points="130.425,63.643 129.33,63.864 129.33,64.187 130.425,64.025 	"/>
	<path fill="#006DA5" d="M126.208,70.925"/>
	<polygon fill="#16609B" points="117.858,59.966 117.738,65.757 118.889,66.019 118.869,60.249 	"/>
	<polygon fill="#006DA5" points="117.858,59.966 116.98,60.103 116.98,60.325 117.858,60.574 	"/>
	<polygon fill="#006DA5" points="117.858,59.587 117.858,59.966 119.005,60.353 119.005,59.966 	"/>
	<polygon fill="#006DA5" points="117.858,59.587 116.759,59.802 116.759,60.13 117.858,59.966 	"/>
	<polygon fill="#16609B" points="105.178,55.925 105.06,62.861 106.211,63.132 106.19,56.196 	"/>
	<polygon fill="#006DA5" points="105.178,55.925 104.302,56.056 104.302,56.274 105.178,56.526 	"/>
	<polygon fill="#006DA5" points="105.178,55.542 105.178,55.925 106.328,56.306 106.328,55.925 	"/>
	<polygon fill="#006DA5" points="105.178,55.542 104.08,55.759 104.08,56.087 105.178,55.925 	"/>
	<polygon fill="#16609B" points="81.52,54.771 81.011,61.537 81.864,61.331 82.202,54.552 	"/>
	<polygon fill="#16609B" points="81.136,54.331 81.136,54.796 82.202,54.415 82.202,53.95 	"/>
	<polygon fill="#00445D" points="82.202,53.95 83.572,54.376 83.445,54.688 82.202,54.415 	"/>
	<polygon fill="#00445D" points="83.292,54.688 82.202,54.552 81.864,61.331 82.202,61.124 82.578,55.002 	"/>
	<polygon fill="#16609B" points="74.288,57.511 73.843,63.506 74.696,63.306 74.974,57.292 	"/>
	<polygon fill="#16609B" points="73.904,57.071 73.904,57.532 74.974,57.153 74.974,56.685 	"/>
	<polygon fill="#00445D" points="74.974,56.685 76.342,57.116 76.217,57.438 74.974,57.153 	"/>
	<polygon fill="#00445D" points="76.062,57.438 74.974,57.292 74.696,63.306 75.035,63.093 75.346,57.739 	"/>
	<polygon fill="#16609B" points="67.36,58.823 66.878,65.226 67.689,65.031 68.009,58.62 	"/>
	<polygon fill="#16609B" points="66.998,58.411 66.998,58.849 68.009,58.489 68.009,58.046 	"/>
	<polygon fill="#00445D" points="68.009,58.046 69.304,58.447 69.185,58.745 68.009,58.489 	"/>
	<polygon fill="#00445D" points="69.043,58.745 68.009,58.62 67.689,65.031 68.009,64.834 68.364,59.04 	"/>
	<polygon fill="#00445D" points="55.449,51.817 55.212,59.188 56.393,59.45 56.537,51.896 	"/>
	<polygon fill="#16609B" points="55.449,51.817 54.943,52.009 54.886,59.233 55.212,59.188 	"/>
	<polygon fill="#16609B" points="55.449,51.292 55.449,51.817 56.681,52.009 56.681,51.611 	"/>
	<polygon fill="#00445D" points="55.449,51.292 54.738,51.696 54.738,52.088 55.449,51.817 	"/>
	<path fill="#00445D" d="M62.319,53.759"/>
	<polygon fill="#16609B" points="29.312,63.846 29.312,64.198 30.063,63.755 30.063,63.372 	"/>
	<polygon fill="#00445D" points="30.063,63.372 31.02,63.588 31.02,63.938 30.063,63.755 	"/>
	<polygon fill="#00445D" points="29.379,64.138 28.967,70.108 29.447,69.898 29.724,64.879 30.063,64.715 30.913,64.308 
		30.913,63.892 30.063,63.755 	"/>
	<polygon fill="#16609B" points="37.453,60.058 37.453,66.547 36.939,66.771 36.939,60.429 	"/>
	<polygon fill="#1C75BC" points="36.72,60.183 36.72,60.593 37.453,60.058 37.453,59.672 	"/>
	<polygon fill="#1C75BC" points="37.453,59.672 38.811,59.981 38.811,60.367 37.453,60.058 	"/>
	<polygon fill="#27AAE1" points="38.637,60.288 38.637,60.675 37.453,61.23 37.453,60.058 	"/>
	<polygon fill="#16609B" points="62.319,53.759 61.786,60.933 62.794,61.713 63.377,53.95 	"/>
	<polygon fill="#16609B" points="62.319,53.321 62.319,53.784 63.662,54.118 63.662,53.635 	"/>
	<polygon fill="#00445D" points="62.319,53.321 61.5,53.62 61.5,53.938 62.319,53.759 	"/>
	<polygon fill="#16609B" points="61.678,53.938 61.678,54.118 62.281,54.284 62.319,53.759 	"/>
	<polygon fill="#00B7F1" points="70.126,45.626 68.871,59.882 70.552,59.276 71.134,45.091 70.181,44.802 	"/>
	<polygon fill="#00445D" points="69.25,43.214 68.415,46.212 98.167,52.911 98.167,51.106 	"/>
	<polygon fill="#00A0DC" points="106.011,36.54 106.011,36.994 107.907,35.903 110.285,36.994 110.285,36.448 107.907,35.433 	"/>
	<polygon fill="#00AEEF" points="160.028,59.729 160.272,66.259 159.203,65.931 158.958,59.404 	"/>
	<polygon fill="#00516D" points="158.958,59.404 157.866,60.073 158.382,66.259 159.203,65.931 	"/>
	<polygon fill="#00516D" points="160.272,66.259 159.47,66.599 158.382,66.259 159.203,65.931 	"/>
	<polygon fill="#00AEEF" points="123.41,46.519 123.659,53.052 122.588,52.72 122.344,46.188 	"/>
	<polygon fill="#00516D" points="122.344,46.188 121.25,46.859 121.769,53.052 122.588,52.72 	"/>
	<polygon fill="#00516D" points="123.659,53.052 122.855,53.386 121.769,53.052 122.588,52.72 	"/>
	<polygon fill="#00516D" points="120.516,43.214 120.516,46.993 143.513,40.261 164.052,62.771 164.709,58.987 144.008,36.804 	"/>
	<path fill="#0080B0" d="M56.106,2.471c-1.508-0.376-2.424,1.179-1.826,2.431c-1.087,0.307-1.332-0.866-2.423-0.602
		c-0.41,1.318,0.949,1.38,1.477,2.278c-0.588,0.922-1.905,1.82-0.323,2.46c-0.463,0.621-1.151,0.372-1.676,0.818
		c-0.171,0.142,0.072,0.863-0.157,1.128c-0.472,0.529-1.404,0.625-1.991,1.026c0.579,2.204,1.713,1.136,2.947,1.203
		c0.206,1.058-0.817,1.613-0.48,2.534c-0.71-0.067-1.412-0.095-1.813,0.514c-0.652-0.492-1.337-1.202-1.909-1.79
		c-0.142,2.154-1.125,0.149-2.179,0.345c-1.313,0.238-1.075,1.583-0.016,1.988c-0.062,0.939-0.688,1.717-0.45,2.723
		c1.465,0.4,0.489,1.607,0.976,2.504c0.21,0.377,0.915,0.35,1.13,0.808c0.325,0.697,0.251,1.183,0.23,1.95
		c0.719,0.013,1.258,0.45,1.359,1.146c-0.441,0.091-0.782,0.457-1.226,0.534c0.392,2.09-1.717,0.921-2.633,0.826
		c-0.032,0.639-0.028,1.295,0,1.936c0.191,0,0.415,0.045,0.607,0.043c0.531,2.06,1.249,3.348,2.65,5.057
		c-0.744,1.035-1.205,0.524-1.964,0.977c0,0.005-0.004,0.005-0.005,0.005c-1.012,0.615-2.767,1.815-1.475,2.958
		c0.697,0.609,2.852-0.207,2.969,1.16c0.068,0.836-0.992,0.732-1.175,1.31c-0.09,0.295,0.322,0.623,0.299,0.696
		c0.062-0.217-0.185,1.451-0.259,1.127c0.164,0.723-0.139,1.309,1.125,1.485c0.435,0.063,0.372-0.717,0.771-0.644
		c0.496,0.104,1.125,0.838,1.318,0.856c1.007,0.118,2.308-2.097,3.445-0.562c-0.227-0.316,0.517-2.802,0.96-3.023
		c0.888-0.438,0.925,0.358,1.627,0.482c0.36,0.055,1.102,0.013,1.356,0.07c0.253,0.064,0.737,0.547,0.865,0.547
		c0.568-0.003,1.329,0.602,1.176-0.672c1.404,0.25,1.952-0.066,1.808-1.637c0.005,0.051,0.538-0.271,0.579-0.443
		c0.111-0.463-0.754-0.492-0.844-0.709c-0.479-1.136-0.456-0.805-0.25-2.339c0.155-1.156-0.485-1.93-0.436-2.929
		c1.004-0.24,3.448-0.204,2.42-1.802c0.715-0.563,3.201-0.435,2.46-2.163c-0.403-0.936-1.492-0.244-2.304-0.696
		c-0.795-0.44-1.135-1.861-1.649-2.732c1.062-0.428,2.225-0.816,2.861-1.706c-1.638-0.444-4.264,0.267-3.825-2.72
		c5.193-2.043,0.283-1.986-1.702-3.313c0.965-2.195,3.391-0.211,4.803-1.348c2.059-1.656-1.474-3.1-2.573-3.281
		c-0.823-1.147-0.806-2.508,0.603-2.938c1.361-0.417,2.21,0.522,1.984-1.75c-0.734-0.401-1.47-0.729-2.289-0.729
		c0.074-0.307-0.139-0.842-0.086-1.104c-2.84,0.037,0.665-2.938-0.005-3.95c-1.618,1.044-3.3,0.552-5.027,0.145"/>
	<polyline fill="#00445D" points="51.025,66.771 56.213,9.659 53.621,65.101 	"/>
	<polygon fill="#27AAE1" points="89.541,51.787 89.541,51.268 90.773,50.827 90.773,51.344 	"/>
	<polyline fill="#16609B" points="90.773,50.827 92.333,51.311 92.333,51.787 90.773,51.344 90.773,50.942 	"/>
	<polygon id="star2" fill="#0092C8" points="129.33,2.607 131.523,9.367 138.623,9.367 132.877,13.538 135.074,20.289 
		129.33,16.115 123.585,20.289 125.781,13.538 120.035,9.367 127.137,9.367 	"/>
	<polygon id="star3" fill="#0092C8" points="165.191,9.963 166.583,14.246 171.087,14.246 167.442,16.893 168.832,21.176 
		165.191,18.53 161.551,21.176 162.942,16.893 159.298,14.246 163.8,14.246 	"/>
</g>
<g>
	<g id="balibu">
		<path fill="#00445D" d="M233.36,107.325h-44.918V0h43.11c20.955,0,33.163,11.754,33.163,30.143
			c0,11.907-7.837,19.596-13.264,22.159c6.484,3.021,14.771,9.802,14.771,24.123C266.223,96.468,252.507,107.325,233.36,107.325z
			 M229.894,18.691h-20.5V43.41h20.5c8.893,0,13.871-4.975,13.871-12.365C243.765,23.659,238.787,18.691,229.894,18.691z
			 M231.25,62.253h-21.856v26.376h21.856c9.501,0,14.025-6.027,14.025-13.259C245.276,68.132,240.751,62.253,231.25,62.253z"/>
		<path fill="#00445D" d="M324.335,107.325v-6.78c-5.279,5.268-10.255,7.531-19.296,7.531c-8.892,0-15.379-2.264-20.045-6.928
			c-4.223-4.37-6.487-10.712-6.487-17.632c0-12.524,8.595-22.776,26.834-22.776h18.534v-3.915c0-8.589-4.218-12.356-14.615-12.356
			c-7.537,0-11.005,1.807-15.077,6.475l-12.511-12.202c7.689-8.44,15.225-10.856,28.342-10.856c22.007,0,33.46,9.346,33.46,27.738
			v51.702H324.335z M323.875,74.158h-15.52c-7.083,0-11.005,3.313-11.005,8.892c0,5.433,3.619,9.046,11.303,9.046
			c5.428,0,8.897-0.453,12.364-3.77c2.107-1.955,2.858-5.123,2.858-9.938V74.158z"/>
		<path fill="#00445D" d="M383.437,107.325c-16.127,0-22.912-11.305-22.912-22.46V0h19.596v83.652c0,4.674,1.955,7.091,6.936,7.091
			h7.535v16.582H383.437z"/>
		<path fill="#00445D" d="M406.992,107.325V28.791h19.598v78.534H406.992z"/>
		<path fill="#00445D" d="M502.431,101.148c-4.375,4.363-11.457,7.082-19.146,7.082c-8.289,0-14.172-2.263-19.596-8.29v7.385
			h-18.996V0h19.6v35.717c5.123-5.717,10.998-7.832,18.992-7.832c7.689,0,14.771,2.714,19.146,7.086
			c7.834,7.842,7.984,21.258,7.984,33.009C510.416,79.743,510.265,93.309,502.431,101.148z M477.558,45.526
			c-11.758,0-13.266,9.641-13.266,22.453c0,12.808,1.508,22.614,13.266,22.614c11.756,0,13.264-9.807,13.264-22.614
			C490.822,55.167,489.314,45.526,477.558,45.526z"/>
		<path fill="#00445D" d="M571.767,107.325v-7.238c-5.121,5.425-12.363,8.144-19.594,8.144c-7.838,0-14.172-2.565-18.543-6.938
			c-6.332-6.322-7.986-13.716-7.986-22.305V28.791h19.59v47.481c0,10.706,6.787,14.321,12.967,14.321
			c6.184,0,13.117-3.615,13.117-14.321V28.791h19.594v78.534H571.767z"/>
	</g>
	<rect x="406.992" fill="#00445D" width="19.939" height="16.012"/>
</g>
<g id="spa">
	<path fill="#00B7F1" d="M450.771,122.56c-2.189,0-3.805-0.573-5.078-1.797l0.912-0.91c0.963,1.015,2.34,1.536,4.111,1.536
		c2.479,0,3.779-0.859,3.779-2.555c0-1.326-0.73-1.927-2.396-2.109l-2.084-0.182c-2.527-0.209-3.777-1.302-3.777-3.281
		c0-2.189,1.771-3.569,4.506-3.569c1.744,0,3.283,0.494,4.402,1.327l-0.885,0.888c-0.967-0.703-2.139-1.067-3.518-1.067
		c-2.084,0-3.205,0.86-3.205,2.422c0,1.327,0.783,1.929,2.553,2.11l2.031,0.181c2.086,0.211,3.676,0.833,3.676,3.281
		C455.798,121.127,453.869,122.56,450.771,122.56z"/>
	<path fill="#00B7F1" d="M467.703,121.465c-0.65,0.65-1.746,1.095-3.072,1.095c-1.434,0-2.609-0.31-3.727-1.771v7.603h-1.328V109.85
		h1.328v1.614c1.117-1.459,2.293-1.771,3.727-1.771c1.326,0,2.422,0.441,3.072,1.092c1.275,1.28,1.613,3.363,1.613,5.344
		C469.316,118.105,468.978,120.188,467.703,121.465z M464.447,110.862c-3.076,0-3.543,2.661-3.543,5.266
		c0,2.604,0.467,5.261,3.543,5.261c3.072,0,3.541-2.657,3.541-5.261C467.988,113.523,467.519,110.862,464.447,110.862z"/>
	<path fill="#00B7F1" d="M480.806,121.155c-1.07,1.068-2.061,1.404-3.832,1.404c-1.875,0-2.891-0.31-3.697-1.146
		c-0.602-0.599-0.91-1.51-0.91-2.446c0-2.293,1.639-3.621,4.373-3.621h4.066v-1.407c0-2.009-0.967-3.076-3.543-3.076
		c-1.773,0-2.658,0.447-3.467,1.591l-0.963-0.832c1.066-1.487,2.369-1.929,4.43-1.929c3.332,0,4.867,1.484,4.867,4.117v8.592h-1.324
		V121.155z M476.898,116.414c-2.139,0-3.207,0.832-3.207,2.524c0,1.667,0.992,2.45,3.283,2.45c1.148,0,2.217-0.103,3.125-0.965
		c0.467-0.442,0.707-1.25,0.707-2.397v-1.612H476.898z"/>
	<path fill="#00B7F1" d="M501.123,121.179c-0.912,0.91-2.061,1.381-3.492,1.381c-1.406,0-2.578-0.471-3.492-1.381
		c-1.328-1.326-1.561-3.257-1.561-5.051c0-1.801,0.232-3.726,1.561-5.056c0.914-0.912,2.086-1.38,3.492-1.38
		c1.432,0,2.58,0.468,3.492,1.38c1.326,1.33,1.561,3.255,1.561,5.056C502.683,117.922,502.449,119.853,501.123,121.179z
		 M500.232,111.93c-0.701-0.701-1.586-1.067-2.602-1.067c-1.018,0-1.9,0.366-2.604,1.067c-1.043,1.046-1.119,2.737-1.119,4.198
		c0,1.458,0.076,3.15,1.119,4.191c0.703,0.703,1.586,1.069,2.604,1.069c1.016,0,1.9-0.366,2.602-1.069
		c1.045-1.041,1.121-2.733,1.121-4.191C501.353,114.667,501.277,112.976,500.232,111.93z"/>
	<path fill="#00B7F1" d="M510.679,128.551c-1.875,0-2.838-0.495-4.139-1.663l0.885-0.888c0.988,0.912,1.666,1.377,3.254,1.377
		c2.631,0,3.805-1.846,3.805-4.348v-2.24c-1.121,1.461-2.293,1.771-3.725,1.771c-1.33,0-2.422-0.444-3.074-1.095
		c-1.277-1.276-1.615-3.359-1.615-5.337c0-1.98,0.338-4.063,1.615-5.344c0.652-0.65,1.744-1.092,3.074-1.092
		c1.432,0,2.604,0.313,3.725,1.771v-1.614h1.326v13.254C515.81,126.258,513.935,128.551,510.679,128.551z M510.939,110.862
		c-3.072,0-3.543,2.661-3.543,5.266c0,2.604,0.471,5.261,3.543,5.261c3.074,0,3.545-2.657,3.545-5.261
		C514.484,113.523,514.013,110.862,510.939,110.862z"/>
	<path fill="#00B7F1" d="M531.779,110.862c-2.162,0-3.361,1.802-3.361,3.805v7.734h-1.33V109.85h1.33v1.669
		c0.732-1.176,2.189-1.826,3.672-1.826c1.225,0,2.111,0.288,3.023,1.196l-0.965,0.968
		C533.394,111.098,532.822,110.862,531.779,110.862z"/>
	<path fill="#00B7F1" d="M541.417,121.362c1.482,0,2.395-0.439,3.463-1.51l0.988,0.783c-1.275,1.272-2.447,1.924-4.531,1.924
		c-3.463,0-5.338-2.24-5.338-6.432c0-4.063,1.875-6.436,5.027-6.436c3.15,0,5.025,2.269,5.025,6.12v0.602h-8.729
		C537.324,119.617,538.734,121.362,541.417,121.362z M544.279,112.976c-0.545-1.326-1.795-2.113-3.252-2.113
		c-1.461,0-2.711,0.787-3.256,2.113c-0.287,0.804-0.367,1.146-0.447,2.37h7.398C544.646,114.147,544.619,113.729,544.279,112.976z"
		/>
	<path fill="#00B7F1" d="M553.998,122.56c-2.189,0-3.805-0.573-5.08-1.797l0.912-0.91c0.963,1.015,2.342,1.536,4.113,1.536
		c2.477,0,3.779-0.859,3.779-2.555c0-1.326-0.73-1.927-2.398-2.109l-2.078-0.182c-2.533-0.209-3.781-1.302-3.781-3.281
		c0-2.189,1.773-3.569,4.506-3.569c1.744,0,3.285,0.494,4.402,1.327l-0.885,0.888c-0.965-0.703-2.139-1.067-3.518-1.067
		c-2.084,0-3.203,0.86-3.203,2.422c0,1.327,0.781,1.929,2.553,2.11l2.029,0.181c2.086,0.211,3.676,0.833,3.676,3.281
		C559.025,121.127,557.093,122.56,553.998,122.56z"/>
	<path fill="#00B7F1" d="M570.615,121.179c-0.912,0.91-2.059,1.381-3.488,1.381c-1.408,0-2.578-0.471-3.492-1.381
		c-1.328-1.326-1.564-3.257-1.564-5.051c0-1.801,0.236-3.726,1.564-5.056c0.914-0.912,2.084-1.38,3.492-1.38
		c1.43,0,2.576,0.468,3.488,1.38c1.328,1.33,1.564,3.255,1.564,5.056C572.179,117.922,571.943,119.853,570.615,121.179z
		 M569.728,111.93c-0.703-0.701-1.586-1.067-2.602-1.067s-1.904,0.366-2.607,1.067c-1.039,1.046-1.121,2.737-1.121,4.198
		c0,1.458,0.082,3.15,1.121,4.191c0.703,0.703,1.592,1.069,2.607,1.069s1.898-0.366,2.602-1.069
		c1.045-1.041,1.123-2.733,1.123-4.191C570.851,114.667,570.773,112.976,569.728,111.93z"/>
	<path fill="#00B7F1" d="M580.98,110.862c-2.16,0-3.357,1.802-3.357,3.805v7.734h-1.33V109.85h1.33v1.669
		c0.729-1.176,2.188-1.826,3.67-1.826c1.227,0,2.111,0.288,3.023,1.196l-0.965,0.968
		C582.595,111.098,582.025,110.862,580.98,110.862z"/>
	<path fill="#00B7F1" d="M587.052,119.122v-8.282h-1.719v-0.99h1.719v-4.012h1.328v4.012h2.836v0.99h-2.836v8.307
		c0,1.328,0.602,2.087,1.924,2.087h0.912v1.168h-1.143C588.095,122.401,587.052,121.022,587.052,119.122z"/>
</g>
</svg>
