<?xml version="1.0" encoding="utf-8"?>
<!-- Generator: Adobe Illustrator 16.0.0, SVG Export Plug-In . SVG Version: 6.00 Build 0)  -->
<!DOCTYPE svg PUBLIC "-//W3C//DTD SVG 1.1//EN" "http://www.w3.org/Graphics/SVG/1.1/DTD/svg11.dtd">
<svg version="1.1" id="Layer_1" xmlns="http://www.w3.org/2000/svg" xmlns:xlink="http://www.w3.org/1999/xlink" x="0px" y="0px"
	 width="6611.883px" height="2640.179px" viewBox="0 0 6611.883 2640.179" enable-background="new 0 0 6611.883 2640.179"
	 xml:space="preserve">
<line fill="none" stroke="#00B7F1" stroke-width="2" stroke-miterlimit="10" x1="1606.032" y1="1237.764" x2="1355.392" y2="0.199"/>
<path id="sol_1_" fill="#00B7F1" d="M2192.617,1532.515c0,306.616-248.566,555.184-555.183,555.184
	c-306.618,0-555.184-248.567-555.184-555.184c0-306.617,248.566-555.184,555.184-555.184
	C1944.051,977.331,2192.617,1225.897,2192.617,1532.515z"/>
<path fill="#00445D" d="M3138.684,2294.798c-3.889-7.714-7.928-15.2-12.205-22.345c-122.686-204.939-291.34-399.092-479.113-552.164
	c-99.764-81.325-183.408-133.232-306.621-87.176c-94.713,35.393-129.334,77.487-222.604,28.267
	c-78.076-41.204-136.951-107.967-216.037-155.927c-194.753-118.097-212.212-107.666-297.608,81.92
	c-78.9,175.18-133.434,359.359-211.358,535.049c-25.658,57.853-52.48,115.168-79.536,172.376H3138.684z"/>
<path fill="#FFFFFF" d="M2410.244,1644.546c99.221-39.161,186.998-13.163,271.803,45.166
	c49.684,34.16,214.16,150.975,199.346,223.076c-11.984,58.283-91.205,39.346-144.695,47.964
	c-69.682,108.555-143.643,93.077-274.16,55.008c-167.85-48.956-258.313-36.986-407.885,38.557
	c-128.956,65.123-162.029,14.459-267.632-64.187c-89.355-66.538-127.18-61.48-225.221-69.55
	c-89.393-7.351-90.752-11.593-70.372-91.321c20.708-80.978,58.822-162.321,91.515-238.967
	c95.955-224.92,115.575-237.303,334.413-97.198c88.865,56.897,155.031,136.104,242.754,184.997
	C2264.914,1736.484,2303.826,1686.544,2410.244,1644.546z"/>
<polygon fill="#006E92" points="1994.252,1575.085 1989.848,1692.521 2182.148,1669.033 2182.148,1619.123 "/>
<polygon fill="#0081AA" points="1729.897,1650.731 1832.653,1509.81 1920.637,1551.287 1998.531,1567.059 1988.256,1700.642 
	1907.519,1718.257 1838.525,1650.731 1729.897,1684.494 "/>
<polygon fill="#00B7F1" points="2376.65,1566.277 2376.65,1735.091 2731.158,1801.882 2725.084,1669.033 2561.781,1513.856 "/>
<polygon fill="#005A78" points="2381.787,1566.277 2182.148,1619.123 2182.148,1682.245 2381.787,1735.091 "/>
<path fill="#005A78" d="M1994.252,1575.085"/>
<polygon fill="#00445D" points="2381.787,1532.515 2182.148,1602.977 2182.148,1619.123 2381.787,1566.277 "/>
<polygon fill="#005A78" points="1789.534,1466.458 2161.598,1575.819 2182.148,1602.977 1923.791,1532.515 "/>
<polygon fill="#00A0DC" points="1570.017,1726.283 1797.548,1619.123 1859.936,1630.867 1872.412,1635.271 1917.919,1682.245 
	2116.09,1611.784 2478.672,1726.283 2478.672,1762.981 2111.688,1676.373 1903.239,1726.283 1852.669,1687.383 1797.548,1674.905 
	1563.9,1772.744 "/>
<polygon fill="#00445D" points="2560.877,1514.166 2587.299,1506.092 2754.645,1683.713 2728.223,1692.521 2728.223,1680.043 
	2718.68,1677.107 2708.914,1683.121 "/>
<polygon fill="#005A78" points="1920.399,1553.555 1911.937,1677.596 1920.778,1679.553 1932.108,1546.704 1924.77,1546.704 "/>
<polygon fill="#1C75BC" points="2116.09,1604.688 2110.586,1678.575 2123.063,1677.596 2126.855,1607.624 "/>
<polyline fill="#005A78" points="2104.025,1678.575 2108.506,1607.624 2116.09,1604.688 2112.299,1677.564 "/>
<polygon fill="#00445D" points="1657.462,1642.61 1657.462,1669.773 1797.042,1495.816 1916.357,1559.313 1923.791,1532.515 
	1789.534,1466.458 "/>
<polygon fill="#002D41" points="1672.779,1650.685 1709.538,1660.572 1732.013,1649.987 1830.941,1513.856 1797.042,1495.816 "/>
<polygon fill="#005A78" points="2161.598,1575.819 2207.912,1587.563 2381.787,1526.654 2591.703,1475.266 2182.148,1602.977 "/>
<polygon fill="#00AEEF" points="2268.461,1466.458 2263.43,1568.115 2288.881,1559.2 2288.881,1475.266 "/>
<polygon fill="#16609B" points="2268.461,1466.458 2254.15,1475.266 2248.133,1573.473 2263.43,1568.115 "/>
<path fill="#16609B" d="M2586.623,1707.203"/>
<polygon fill="#16609B" points="2470.354,1718.455 2470.354,1760.963 2480.629,1763.388 2479.406,1720.9 "/>
<polygon fill="#006DA5" points="2470.354,1718.455 2462.525,1719.678 2462.525,1721.634 2470.354,1723.836 "/>
<polygon fill="#006DA5" points="2470.354,1715.028 2470.354,1718.455 2480.629,1721.879 2480.629,1718.455 "/>
<polygon fill="#006DA5" points="2470.354,1715.028 2460.568,1716.986 2460.568,1719.923 2470.354,1718.455 "/>
<path fill="#006DA5" d="M2432.676,1780.106"/>
<polygon fill="#16609B" points="2358.057,1682.189 2357.012,1733.878 2367.287,1736.302 2367.107,1684.636 "/>
<polygon fill="#006DA5" points="2358.057,1682.189 2350.229,1683.412 2350.229,1685.37 2358.057,1687.572 "/>
<polygon fill="#006DA5" points="2358.057,1678.765 2358.057,1682.189 2368.332,1685.615 2368.332,1682.189 "/>
<polygon fill="#006DA5" points="2358.057,1678.765 2348.27,1680.721 2348.27,1683.657 2358.057,1682.189 "/>
<polygon fill="#16609B" points="2244.779,1646.035 2243.736,1708.034 2254.012,1710.458 2253.832,1648.482 "/>
<polygon fill="#006DA5" points="2244.779,1646.035 2236.951,1647.258 2236.951,1649.216 2244.779,1651.418 "/>
<polygon fill="#006DA5" points="2244.779,1642.61 2244.779,1646.035 2255.057,1649.461 2255.057,1646.035 "/>
<polygon fill="#006DA5" points="2244.779,1642.61 2234.994,1644.567 2234.994,1647.503 2244.779,1646.035 "/>
<polygon fill="#16609B" points="2033.398,1635.758 2028.871,1696.202 2036.486,1694.379 2039.514,1633.803 "/>
<polygon fill="#16609B" points="2029.973,1631.844 2029.973,1636.002 2039.514,1632.577 2039.514,1628.419 "/>
<polygon fill="#00445D" points="2039.514,1628.419 2051.748,1632.21 2050.625,1635.061 2039.514,1632.577 "/>
<polygon fill="#00445D" points="2049.252,1635.061 2039.514,1633.803 2036.486,1694.379 2039.514,1692.521 2042.869,1637.818 "/>
<polygon fill="#16609B" points="1968.81,1660.223 1964.832,1713.799 1972.449,1711.975 1974.926,1658.268 "/>
<polygon fill="#16609B" points="1965.384,1656.308 1965.384,1660.468 1974.926,1657.042 1974.926,1652.883 "/>
<polygon fill="#00445D" points="1974.926,1652.883 1987.158,1656.675 1986.035,1659.526 1974.926,1657.042 "/>
<polygon fill="#00445D" points="1984.664,1659.526 1974.926,1658.268 1972.449,1711.975 1975.477,1710.116 1978.281,1662.283 "/>
<polygon fill="#16609B" points="1906.92,1671.949 1902.635,1729.156 1909.844,1727.43 1912.709,1670.099 "/>
<polygon fill="#16609B" points="1903.678,1668.243 1903.678,1672.18 1912.709,1668.938 1912.709,1665.002 "/>
<polygon fill="#00445D" points="1912.709,1665.002 1924.287,1668.591 1923.224,1671.288 1912.709,1668.938 "/>
<polygon fill="#00445D" points="1921.926,1671.288 1912.709,1670.099 1909.844,1727.43 1912.709,1725.671 1915.885,1673.898 "/>
<polygon fill="#00445D" points="1800.487,1609.334 1798.376,1675.23 1808.923,1677.479 1810.194,1610.07 "/>
<polygon fill="#16609B" points="1800.487,1609.334 1795.967,1611.074 1795.468,1675.64 1798.376,1675.23 "/>
<polygon fill="#16609B" points="1800.487,1604.685 1800.487,1609.334 1811.493,1611.108 1811.493,1607.56 "/>
<polygon fill="#00445D" points="1800.487,1604.685 1794.126,1608.234 1794.126,1611.784 1800.487,1609.334 "/>
<path fill="#00445D" d="M1861.896,1626.704"/>
<polygon fill="#16609B" points="1566.989,1716.833 1566.989,1719.953 1573.691,1716.005 1573.691,1712.578 "/>
<polygon fill="#00445D" points="1573.691,1712.578 1582.219,1714.54 1582.219,1717.659 1573.691,1716.005 "/>
<polygon fill="#00445D" points="1567.575,1719.43 1563.9,1772.744 1568.185,1770.951 1570.634,1725.992 1573.691,1724.552 
	1581.276,1720.98 1581.276,1717.228 1573.691,1716.005 "/>
<polygon fill="#16609B" points="1639.744,1682.979 1639.744,1740.985 1635.124,1742.919 1635.124,1686.282 "/>
<polygon fill="#1C75BC" points="1633.138,1684.08 1633.138,1687.75 1639.744,1682.979 1639.744,1679.553 "/>
<polygon fill="#1C75BC" points="1639.744,1679.553 1651.854,1682.272 1651.854,1685.765 1639.744,1682.979 "/>
<polygon fill="#27AAE1" points="1650.287,1685.07 1650.287,1688.478 1639.744,1693.443 1639.744,1682.979 "/>
<polygon fill="#16609B" points="1861.896,1626.704 1857.117,1690.805 1866.119,1697.729 1871.312,1628.419 "/>
<polygon fill="#16609B" points="1861.896,1622.793 1861.896,1626.952 1873.881,1629.888 1873.881,1625.607 "/>
<polygon fill="#00445D" points="1861.896,1622.793 1854.553,1625.484 1854.553,1628.298 1861.896,1626.704 "/>
<polygon fill="#16609B" points="1856.143,1628.298 1856.143,1629.888 1861.543,1631.435 1861.896,1626.704 "/>
<polygon fill="#00B7F1" points="1931.619,1554.044 1920.399,1681.362 1935.41,1676.024 1940.638,1549.289 1932.108,1546.704 "/>
<polygon fill="#00445D" points="1923.791,1532.515 1916.357,1559.313 2182.148,1619.123 2182.148,1602.977 "/>
<polygon fill="#00A0DC" points="2252.242,1472.88 2252.242,1476.917 2269.195,1467.191 2290.408,1476.917 2290.408,1472.054 
	2269.195,1462.971 "/>
<polygon fill="#00AEEF" points="2734.828,1680.043 2737.029,1738.394 2727.488,1735.458 2725.287,1677.107 "/>
<polygon fill="#00516D" points="2725.287,1677.107 2715.52,1683.121 2720.15,1738.394 2727.488,1735.458 "/>
<polygon fill="#00516D" points="2737.029,1738.394 2729.883,1741.417 2720.15,1738.394 2727.488,1735.458 "/>
<polygon fill="#00AEEF" points="2407.703,1562.015 2409.904,1620.365 2400.363,1617.429 2398.16,1559.078 "/>
<polygon fill="#00516D" points="2398.16,1559.078 2388.395,1565.092 2393.025,1620.365 2400.363,1617.429 "/>
<polygon fill="#00516D" points="2409.904,1620.365 2402.758,1623.389 2393.025,1620.365 2400.363,1617.429 "/>
<polygon fill="#00516D" points="2381.787,1532.515 2381.787,1566.277 2587.299,1506.092 2770.793,1707.203 2776.664,1673.438 
	2591.703,1475.266 "/>
<path fill="#0080B0" d="M1806.355,1168.465c-13.476-3.363-21.639,10.492-16.294,21.722c-9.7,2.747-11.915-7.728-21.651-5.352
	c-3.685,11.71,8.473,12.31,13.175,20.329c-5.221,8.263-17.001,16.261-2.87,21.982c-4.157,5.55-10.285,3.303-15.001,7.305
	c-1.509,1.281,0.688,7.73-1.369,10.055c-4.224,4.77-12.551,5.597-17.809,9.152c5.198,19.73,15.318,10.191,26.366,10.771
	c1.818,9.533-7.331,14.448-4.336,22.683c-6.328-0.563-12.571-0.852-16.191,4.601c-5.816-4.416-11.93-10.728-17.043-16.014
	c-1.274,19.22-10.041,1.336-19.457,3.078c-11.746,2.172-9.629,14.159-0.18,17.73c-0.527,8.406-6.112,15.348-4.002,24.373
	c13.104,3.569,4.365,14.359,8.727,22.346c1.868,3.419,8.169,3.124,10.087,7.239c2.917,6.259,2.244,10.538,2.063,17.417
	c6.421,0.108,11.222,4.023,12.149,10.244c-3.965,0.763-6.998,4.086-10.968,4.761c3.53,18.69-15.308,8.249-23.521,7.383
	c-0.26,5.739-0.242,11.577-0.005,17.317c1.726,0.006,3.724,0.416,5.433,0.368c4.75,18.396,11.153,29.92,23.696,45.18
	c-6.685,9.224-10.795,4.702-17.569,8.779c-0.009,0.005-0.018,0.011-0.026,0.016c-9.032,5.456-24.727,16.212-13.171,26.396
	c6.196,5.46,25.451-1.819,26.479,10.389c0.628,7.44-8.831,6.535-10.45,11.705c-0.821,2.619,2.839,5.541,2.633,6.24
	c0.574-1.95-1.619,12.952-2.275,9.983c1.431,6.477-1.26,11.703,10.017,13.308c3.9,0.555,3.346-6.411,6.908-5.707
	c4.418,0.871,10.06,7.436,11.772,7.635c9,1.042,20.605-18.729,30.776-5.089c-2.046-2.743,4.606-24.979,8.595-26.961
	c7.897-3.924,8.247,3.204,14.498,4.285c3.247,0.561,9.885,0.105,12.154,0.681c2.238,0.566,6.548,4.877,7.708,4.864
	c5.064-0.058,11.857,5.341,10.531-6.005c12.506,2.276,17.434-0.555,16.143-14.686c0.047,0.505,4.813-2.396,5.174-3.925
	c0.965-4.099-6.741-4.371-7.549-6.296c-4.266-10.182-4.075-7.217-2.25-20.867c1.393-10.426-4.325-17.297-3.875-26.203
	c8.972-2.12,30.826-1.824,21.609-16.106c6.391-5.037,28.607-3.9,21.975-19.337c-3.579-8.33-13.313-2.166-20.557-6.184
	c-7.135-3.958-10.139-16.668-14.753-24.459c9.478-3.791,19.864-7.25,25.586-15.223c-14.639-3.954-38.116,2.39-34.191-24.269
	c46.399-18.349,2.529-17.756-15.221-29.606c8.646-19.635,30.327-1.893,42.913-12.043c18.396-14.832-13.156-27.687-22.98-29.353
	c-7.354-10.235-7.206-22.39,5.375-26.237c12.174-3.724,19.758,4.667,17.713-15.675c-6.519-3.526-13.121-6.444-20.426-6.467
	c0.659-2.748-1.239-7.479-0.781-9.871c-25.367,0.376,5.941-26.228-0.029-35.302c-14.456,9.338-29.471,4.932-44.923,1.322"/>
<polyline fill="#00445D" points="1760.997,1742.919 1807.308,1232.715 1784.151,1727.982 "/>
<polygon fill="#27AAE1" points="2105.08,1609.092 2105.08,1604.444 2116.09,1600.529 2116.09,1605.109 "/>
<polyline fill="#16609B" points="2116.09,1600.529 2130.035,1604.811 2130.035,1609.092 2116.09,1605.109 2116.09,1601.508 "/>
<polygon fill="#0092C8" points="2460.568,1116.957 2480.166,1177.273 2543.586,1177.273 2492.277,1214.551 2511.875,1274.865 
	2460.568,1237.59 2409.26,1274.865 2428.857,1214.551 2377.549,1177.273 2440.969,1177.273 "/>
<polygon fill="#0092C8" points="2234.994,949.668 2248.863,992.354 2293.746,992.354 2257.434,1018.735 2271.305,1061.42 
	2234.994,1035.039 2198.684,1061.42 2212.553,1018.735 2176.242,992.354 2221.125,992.354 "/>
<polygon fill="#0092C8" points="2780.986,1182.637 2793.418,1220.895 2833.643,1220.895 2801.1,1244.537 2813.529,1282.793 
	2780.986,1259.149 2748.443,1282.793 2760.875,1244.537 2728.332,1220.895 2768.557,1220.895 "/>
<text transform="matrix(1 0 0 1 3400 2171.1006)" fill="#00445D" font-family="'Arial'" font-size="1137.7231">Balibu</text>
<text transform="matrix(1 0 0 1 3450 2501.4365)" fill="#00B7F1" font-family="'Arial'" font-size="500" letter-spacing="-4"> spa og resort</text>
<line fill="none" stroke="#00B7F1" stroke-width="2" stroke-miterlimit="10" x1="1283.158" y1="1959.979" x2="394.841" y2="2639.385"/>
<line fill="none" stroke="#00B7F1" stroke-width="2" stroke-miterlimit="10" x1="1133.859" y1="1652.641" x2="394.841" y2="1791.118"/>
<line fill="none" stroke="#00B7F1" stroke-width="2" stroke-miterlimit="10" x1="1133.859" y1="1298.454" x2="0.294" y2="949.668"/>
<line fill="none" stroke="#00B7F1" stroke-width="2" stroke-miterlimit="10" x1="1283.158" y1="1105.052" x2="801.412" y2="618.982"/>
<line fill="none" stroke="#00B7F1" stroke-width="2" stroke-miterlimit="10" x1="1882.718" y1="1061.42" x2="2074.395" y2="404.456"/>
</svg>
